USFL
nRows=140
nColumns=2
inDegrees=yes
endheader
time	med_gas_r	
2.93448	 47.514577	
3.00605	 47.615292	
3.07762	 47.631550	
3.14919	 47.605270	
3.22077	 47.448518	
3.29234	 47.459494	
3.36391	 47.508929	
3.43548	 47.566324	
3.50706	 47.715379	
3.57863	 47.561519	
3.6502	 47.429925	
3.72177	 47.468480	
3.79335	 47.523167	
3.86492	 47.829565	
3.93649	 47.698267	
4.00806	 47.656578	
4.07964	 47.464807	
4.15121	 47.549763	
4.22278	 47.493210	
4.29435	 47.580740	
4.36593	 47.634563	
4.4375	 47.606342	
4.50907	 47.313306	
4.58065	 47.323629	
4.65222	 47.342176	
4.72379	 47.340731	
4.79536	 47.464299	
4.86694	 47.434426	
4.93851	 47.355248	
5.01008	 47.340470	
5.08165	 47.492123	
5.15323	 47.223738	
5.2248	 47.219364	
5.29637	 47.340194	
5.36794	 47.233572	
5.43952	 47.478573	
5.51109	 47.297077	
5.58266	 47.111280	
5.65423	 47.500743	
5.72581	 43.533518	
5.79738	 40.572859	
5.86895	 37.152199	
5.94052	 35.691101	
6.0121	 34.442423	
6.08367	 33.390251	
6.15524	 33.214094	
6.22681	 32.891125	
6.29839	 32.532200	
6.36996	 32.577124	
6.44153	 32.398382	
6.5131	 32.332471	
6.58468	 31.925801	
6.65625	 31.853784	
6.72782	 29.608067	
6.7994	 29.415674	
6.87097	 28.581023	
6.94254	 28.481752	
7.01411	 28.662165	
7.08569	 28.914867	
7.15726	 28.774940	
7.22883	 28.831269	
7.3004	 29.013621	
7.37198	 29.324404	
7.44355	 29.348548	
7.51512	 29.328198	
7.58669	 29.124566	
7.65827	 29.167682	
7.72984	 29.210602	
7.80141	 29.079473	
7.87298	 29.338934	
7.94456	 29.091791	
8.01613	 28.987406	
8.0877	 29.229233	
8.15927	 29.059241	
8.23085	 29.115456	
8.30242	 29.113378	
8.37399	 29.039912	
8.44556	 28.892944	
8.51714	 28.832126	
8.58871	 28.496658	
8.66028	 28.359143	
8.73185	 28.285872	
8.80343	 28.139100	
8.875	 28.215319	
8.94657	 28.319782	
9.01815	 28.048661	
9.08972	 28.060041	
9.16129	 28.068638	
9.23286	 27.919460	
9.30444	 27.966088	
9.37601	 27.842611	
9.44758	 27.825992	
9.51915	 27.929476	
9.59073	 28.111912	
9.6623	 28.085945	
9.73387	 27.868909	
9.80544	 27.792414	
9.87702	 27.699667	
9.94859	 27.606835	
10.0202	 27.629682	
10.0917	 27.604730	
10.1633	 27.418552	
10.2349	 27.665061	
10.3065	 27.294380	
10.378	 28.641008	
10.4496	 29.710326	
10.5212	 30.325564	
10.5927	 33.363468	
10.6643	 36.124587	
10.7359	 41.710612	
10.8075	 44.567212	
10.879	 48.076033	
10.9506	 49.126159	
11.0222	 49.161562	
11.0937	 49.720114	
11.1653	 49.880002	
11.2369	 50.582438	
11.3085	 50.643337	
11.38	 50.986874	
11.4516	 50.859376	
11.5232	 50.689298	
11.5948	 50.995643	
11.6663	 51.195560	
11.7379	 51.182155	
11.8095	 51.219912	
11.881	 50.577505	
11.9526	 50.693382	
12.0242	 50.403322	
12.0958	 50.509291	
12.1673	 50.815181	
12.2389	 50.642976	
12.3105	 51.245484	
12.3821	 51.163624	
12.4536	 50.996133	
12.5252	 51.144428	
12.5968	 51.196672	
12.6683	 51.169586	
12.7399	 51.289340	
12.8115	 50.953649	
12.8831	 51.290377	
